<?xml version="1.0" standalone="no"?>
<!DOCTYPE svg PUBLIC "-//W3C//DTD SVG 20010904//EN"
 "http://www.w3.org/TR/2001/REC-SVG-20010904/DTD/svg10.dtd">
<svg version="1.0" xmlns="http://www.w3.org/2000/svg"
 width="341.000000pt" height="341.000000pt" viewBox="0 0 341.000000 341.000000"
 preserveAspectRatio="xMidYMid meet">
<metadata>
Created by potrace 1.14, written by Peter Selinger 2001-2017
</metadata>
<g transform="translate(0.000000,341.000000) scale(0.100000,-0.100000)"
fill="#000000" stroke="none">
<path d="M1588 3355 c-2 -1 -37 -5 -78 -8 -80 -6 -157 -19 -230 -37 -25 -6
-52 -12 -60 -14 -103 -25 -294 -107 -403 -172 -143 -86 -331 -250 -413 -361
-16 -21 -32 -40 -35 -43 -11 -9 -95 -143 -131 -210 -63 -115 -117 -268 -154
-435 -21 -93 -32 -231 -29 -375 2 -91 6 -176 9 -190 3 -14 8 -42 10 -62 9 -69
44 -203 79 -298 164 -453 522 -819 965 -986 81 -31 116 -31 147 1 l25 24 0
221 0 222 -31 -7 c-50 -11 -230 -8 -284 4 -130 31 -191 80 -247 200 -65 137
-106 190 -197 255 -109 79 -17 123 121 59 75 -35 114 -70 162 -146 72 -113
151 -164 266 -174 53 -4 83 -1 139 16 40 12 74 27 76 34 2 7 11 38 19 69 9 31
32 77 50 102 l35 44 -52 7 c-276 35 -415 86 -520 191 -72 72 -127 183 -153
309 -20 97 -24 274 -7 355 13 64 50 155 74 180 32 34 70 91 65 98 -27 44 -30
255 -5 352 10 41 26 80 34 86 39 29 209 -29 370 -126 l85 -52 63 16 c34 8 82
18 107 21 25 3 58 8 73 11 16 3 90 6 165 6 159 0 209 -6 358 -38 l70 -15 51
33 c50 33 168 94 233 122 50 20 133 34 157 25 49 -18 81 -278 49 -398 l-15
-55 45 -55 c89 -108 120 -194 123 -342 4 -207 -53 -400 -151 -510 -92 -103
-269 -179 -473 -203 -27 -4 -69 -9 -92 -12 l-42 -6 30 -37 c16 -21 40 -62 52
-92 21 -52 22 -69 25 -409 3 -394 3 -394 68 -406 27 -5 53 0 107 21 567 220
954 715 1041 1332 13 95 15 368 2 457 -50 359 -218 688 -475 934 -152 147
-306 246 -531 345 -104 45 -298 94 -455 113 -50 6 -282 13 -287 9z"/>
<path d="M626 1106 c7 -19 48 -22 42 -3 -3 6 -14 13 -26 15 -16 3 -20 -1 -16
-12z"/>
<path d="M696 1061 c-4 -5 -3 -16 0 -25 8 -20 44 -21 44 -1 0 17 -36 39 -44
26z"/>
<path d="M760 962 c0 -28 27 -49 43 -33 8 8 9 16 1 29 -16 25 -44 28 -44 4z"/>
<path d="M840 875 c-9 -11 -7 -18 10 -35 20 -20 24 -21 37 -7 17 17 12 32 -17
47 -13 7 -21 6 -30 -5z"/>
<path d="M963 813 c-24 -8 -14 -42 13 -49 27 -7 50 7 40 25 -10 16 -39 29 -53
24z"/>
<path d="M1220 795 c-16 -19 -5 -35 25 -35 26 0 42 29 23 42 -19 12 -34 10
-48 -7z"/>
<path d="M1090 780 c-13 -8 -13 -11 1 -26 21 -20 62 -10 57 14 -4 20 -36 26
-58 12z"/>
</g>
</svg>
